<svg width="327" height="56" viewBox="0 0 327 56" fill="none" xmlns="http://www.w3.org/2000/svg">
<path fill-rule="evenodd" clip-rule="evenodd" d="M146.817 23.9102L146.849 46.8556L147.372 46.894L147.896 46.9326V23.9487V0.964844H147.341H146.786L146.817 23.9102ZM0.0924351 8.67461C0.0415342 8.72695 0 14.6485 0 21.8338V34.8977H6.10553C9.64024 34.8977 12.7114 34.841 13.3991 34.7631C16.8001 34.3778 19.7048 33.0444 21.8221 30.8967C23.4846 29.2102 24.5373 27.225 25.1099 24.6971C25.4287 23.29 25.3933 19.996 25.0443 18.5774C24.5253 16.4674 23.6818 14.7595 22.3866 13.1954C21.1308 11.6787 18.6394 10.0883 16.476 9.42214C14.2549 8.73822 13.8586 8.70629 6.77858 8.64055C3.15204 8.607 0.143336 8.62227 0.0924351 8.67461ZM34.1394 21.7475V34.8977H36.5433H38.9471L38.9158 21.7816L38.8844 8.66547L36.5119 8.63141L34.1394 8.59748V21.7475ZM49.5452 21.753V34.9031L51.9177 34.8691L54.2902 34.8351L54.3519 26.0938L54.4135 17.3524L61.4385 26.1252L68.4636 34.8981L70.4356 34.8666L72.4075 34.8351V21.7503V8.66547L70.0359 8.63141L67.6641 8.59748L67.6326 17.4453L67.6009 26.2933L60.5142 17.4489L53.4275 8.60462L51.4864 8.60374L49.5452 8.60287V21.753ZM90.7221 9.13227C90.597 9.42652 87.9918 15.3159 84.9328 22.22C81.8737 29.124 79.371 34.8008 79.371 34.8352C79.371 34.8695 80.4802 34.8977 81.8359 34.8977C83.6079 34.8977 84.3008 34.8574 84.3008 34.7541C84.3008 34.6751 85.3755 32.1253 86.6891 29.0882C88.0027 26.0509 90.0093 21.3531 91.1481 18.6486C92.287 15.9441 93.2615 13.7748 93.3138 13.8279C93.366 13.881 95.3956 18.6293 97.824 24.3798L102.239 34.8351L104.732 34.869C106.278 34.8901 107.225 34.8569 107.225 34.7819C107.225 34.7153 104.627 28.8118 101.451 21.6631L95.6771 8.66547L93.3134 8.63141L90.9498 8.59748L90.7221 9.13227ZM114.25 21.7373V34.8977H116.653H119.056V31.0767V27.2557L122.472 27.289L125.888 27.3223L128.48 31.1084L131.073 34.8943L133.63 34.8961C135.037 34.8969 136.188 34.8619 136.188 34.8181C136.188 34.7742 134.923 32.9007 133.377 30.6547C131.831 28.4086 130.523 26.4994 130.472 26.4119C130.407 26.3034 130.523 26.191 130.834 26.0588C133.051 25.1176 134.892 22.9409 135.538 20.4981C135.837 19.3623 135.836 16.6153 135.535 15.4896C134.732 12.4921 132.666 10.3834 129.532 9.36341C127.599 8.73421 127.251 8.70617 120.566 8.63968L114.25 8.57695V21.7373ZM13.6804 13.1075C17.0269 13.8056 19.412 16.0657 20.2137 19.2986C20.5224 20.5435 20.5526 22.6741 20.2806 24.0041C19.795 26.3774 18.144 28.5485 16.0221 29.6039C14.0952 30.5623 12.7228 30.7603 7.98023 30.7635L4.80663 30.7656V21.8129V12.8601L8.65809 12.8618C11.9901 12.8633 12.6674 12.8963 13.6804 13.1075ZM126.841 13.0413C128.603 13.4207 129.775 14.2543 130.421 15.5861C130.814 16.3978 130.827 16.4714 130.827 17.9912C130.827 19.4236 130.798 19.6199 130.502 20.2627C130.067 21.2051 129.441 21.8816 128.568 22.3546C127.288 23.0477 126.636 23.143 122.661 23.2172L119.056 23.2844V18.0723V12.8601L122.538 12.8623C125.06 12.8639 126.246 12.9132 126.841 13.0413Z" fill="#1A1A1A"/>
<path d="M172.53 34L162.585 11.5426H165.151L174.455 32.6846H173.044L182.412 11.5426H184.818L174.872 34H172.53ZM195.898 21.5842H207.768V23.6054H195.898V21.5842ZM196.155 31.9467H209.661V34H193.78V11.5426H209.18V13.5958H196.155V31.9467ZM220.945 34V11.5426H229.351C231.254 11.5426 232.89 11.8527 234.259 12.4729C235.628 13.0718 236.676 13.9487 237.403 15.1037C238.152 16.2372 238.526 17.6168 238.526 19.2423C238.526 20.825 238.152 22.1938 237.403 23.3488C236.676 24.4823 235.628 25.3592 234.259 25.9795C232.89 26.5784 231.254 26.8778 229.351 26.8778H222.26L223.319 25.787V34H220.945ZM236.28 34L230.506 25.8512H233.072L238.879 34H236.28ZM223.319 25.9795L222.26 24.8566H229.286C231.532 24.8566 233.233 24.3647 234.387 23.3808C235.564 22.397 236.152 21.0175 236.152 19.2423C236.152 17.4457 235.564 16.0554 234.387 15.0716C233.233 14.0877 231.532 13.5958 229.286 13.5958H222.26L223.319 12.4729V25.9795ZM249.833 34V11.5426H252.207V34H249.833ZM267.335 22.4184H279.205V24.4716H267.335V22.4184ZM267.591 34H265.217V11.5426H280.617V13.5958H267.591V34ZM296.58 34V25.6587L297.126 27.1344L287.598 11.5426H290.132L298.505 25.2416H297.158L305.531 11.5426H307.905L298.377 27.1344L298.922 25.6587V34H296.58Z" fill="#1A1A1A"/>
</svg>
